# xmcd
#
# Track frame offsets: 
#        150
#        14279
#        30373
#        56165
#        73080
#        94401
#        107839
#        134164
#        159396
#        176954
#        198826
#        215573
#
# Disc length: 3074 seconds
#
# Revision: 1
# Processed by: cddbd v1.5.2PL0 Copyright (c) Steve Scherf et al.
# Submitted via: ExactAudioCopy v0.95a4
#
DISCID=b20c000c
DTITLE=Pat "Mother Blues" Cohen - Millennium Blues
DYEAR=2015
DGENRE=Blues
TTITLE0=Grinnin' In Your Face
TTITLE1=Star Spangled Banner
TTITLE2=Sweet Little Angel
TTITLE3=You Can Have My Husband
TTITLE4=Rock Me Baby
TTITLE5=All Of Me
TTITLE6=Rachel And Ralph - Millennuim Blues
TTITLE7=If I Can Sell It
TTITLE8=Grinnin'In Your Face (A Cappella
TTITLE9=No Pain No Gain
TTITLE10=Mojo Working
TTITLE11=Treat Me Bad
EXTD=
EXTT0=
EXTT1=
EXTT2=
EXTT3=
EXTT4=
EXTT5=
EXTT6=
EXTT7=
EXTT8=
EXTT9=
EXTT10=
EXTT11=
PLAYORDER=
